<svg id="graphiclayer" xmlns="http://www.w3.org/2000/svg" xmlns:xlink="http://www.w3.org/1999/xlink" viewBox="0 0 1999 360"><defs><style>.cls-1{fill:url(#linear-gradient);}.cls-2{fill:#faf15b;}.cls-13,.cls-3{fill:#009444;}.cls-3{opacity:0.54;}.cls-12,.cls-3{isolation:isolate;}.cls-4{fill:#d7df23;}.cls-5{fill:#fff200;}.cls-6{fill:#f9ed32;}.cls-7{fill:#8dc63f;}.cls-12,.cls-8{fill:#fff766;}.cls-9{fill:#00341c;}.cls-10{fill:#006838;}.cls-11{fill:#004e2a;}.cls-12{opacity:0.66;}.cls-14{fill:#006f33;}</style><linearGradient id="linear-gradient" x1="-0.92" y1="-153.6" x2="2002.52" y2="-153.6" gradientTransform="matrix(1, 0, 0, -1, 0, 162)" gradientUnits="userSpaceOnUse"><stop offset="0" stop-color="#fbf6b0"/><stop offset="0.15" stop-color="#f9ed32"/><stop offset="0.16" stop-color="#f4eb33"/><stop offset="0.3" stop-color="#bdd739"/><stop offset="0.4" stop-color="#9acb3d"/><stop offset="0.46" stop-color="#8dc63f"/><stop offset="0.55" stop-color="#72c142"/><stop offset="0.73" stop-color="#39b54a"/><stop offset="1" stop-color="#006838"/></linearGradient></defs><title>hero</title><rect id="_Rectangle_" data-name="&lt;Rectangle&gt;" class="cls-1" x="-0.9" y="-352.2" width="2003.4" height="1335.63"/><polygon id="_Polygon_" data-name="&lt;Polygon&gt;" class="cls-2" points="687.6 379 543 689.6 339.7 315.6 687.6 379"/><polygon id="_Polygon_2" data-name="&lt;Polygon&gt;" class="cls-3" points="832.2 629.5 924 315.6 1095 559.4 832.2 629.5"/><polygon id="_Polygon_3" data-name="&lt;Polygon&gt;" class="cls-4" points="196.1 573.4 339.7 315.6 543 689.6 196.1 573.4"/><polygon id="_Polygon_4" data-name="&lt;Polygon&gt;" class="cls-5" points="339.7 315.6 196.1 573.4 -0.9 621.1 -0.9 570 109.3 379 339.7 315.6"/><polygon id="_Polygon_5" data-name="&lt;Polygon&gt;" class="cls-4" points="499.9 218.8 339.7 315.6 253.9 128.6 499.9 218.8"/><polygon id="_Polygon_6" data-name="&lt;Polygon&gt;" class="cls-6" points="339.7 315.6 499.9 218.8 687.6 379 339.7 315.6"/><polygon id="_Polygon_7" data-name="&lt;Polygon&gt;" class="cls-4" points="832.2 128.6 687.6 379 687.6 379 832.2 629.5 924 315.6 832.2 128.6"/><polygon id="_Polygon_8" data-name="&lt;Polygon&gt;" class="cls-3" points="924 315.6 1171.1 58.5 1265.9 379 924 315.6"/><polygon id="_Polygon_9" data-name="&lt;Polygon&gt;" class="cls-7" points="1265.9 379 1410.8 128.6 1481.6 452.5 1265.9 379"/><polygon id="_Polygon_10" data-name="&lt;Polygon&gt;" class="cls-6" points="109.3 379 253.9 128.6 339.7 315.6 109.3 379"/><polygon id="_Polygon_11" data-name="&lt;Polygon&gt;" class="cls-8" points="109.3 379 -0.9 379 -0.9 192.4 106.9 374.7 109.3 379"/><polygon id="_Polygon_12" data-name="&lt;Polygon&gt;" class="cls-5" points="248.8 128.6 106.9 374.7 104.3 379 -0.9 200.7 -0.9 57.5 248.8 128.6"/><polygon id="_Polygon_13" data-name="&lt;Polygon&gt;" class="cls-9" points="2002.5 130.3 2002.5 353.3 1808.2 315.6 1934.7 5.7 1935.7 3.4 1936.4 4.7 2002.5 130.3"/><polygon id="_Polygon_14" data-name="&lt;Polygon&gt;" class="cls-10" points="1481.6 452.5 1700 128.6 1808.2 315.6 1481.6 452.5"/><polygon id="_Polygon_15" data-name="&lt;Polygon&gt;" class="cls-11" points="1935.7 3.4 1808.2 315.6 1700 128.6 1935.7 3.4"/><polygon id="_Polygon_16" data-name="&lt;Polygon&gt;" class="cls-12" points="600.1 -41.7 499.9 218.8 393.4 -121.8 600.1 -41.7"/><polygon id="_Polygon_17" data-name="&lt;Polygon&gt;" class="cls-4" points="499.9 218.8 600.1 -41.7 832.2 128.6 499.9 218.8"/><polygon id="_Polygon_18" data-name="&lt;Polygon&gt;" class="cls-4" points="832.2 128.6 924 -212 1171.1 58.5 832.2 128.6"/><polygon id="_Polygon_19" data-name="&lt;Polygon&gt;" class="cls-3" points="1171.1 58.5 1257.6 -212 1410.8 128.6 1171.1 58.5"/><polygon id="_Polygon_20" data-name="&lt;Polygon&gt;" class="cls-13" points="1555.4 -121.8 1410.8 128.6 1700 128.6 1806.5 -292.1 1555.4 -121.8"/><polygon id="_Polygon_21" data-name="&lt;Polygon&gt;" class="cls-8" points="253.9 128.6 247.8 126.9 -0.9 56.2 -0.9 -41.7 105.9 -119.1 109.3 -121.8 253.9 128.6"/><polygon id="_Polygon_22" data-name="&lt;Polygon&gt;" class="cls-14" points="2002.5 753 2002.5 762 1778.8 559.4 1808.2 315.6 2002.5 753"/><polygon id="_Polygon_23" data-name="&lt;Polygon&gt;" class="cls-11" points="2002.5 353.3 2002.5 753 1808.2 315.6 2002.5 353.3"/><polygon id="_Polygon_24" data-name="&lt;Polygon&gt;" class="cls-9" points="2002.5 -36.7 2002.5 26.8 1939.1 3.4 2002.5 -36.7"/><polygon id="_Polygon_25" data-name="&lt;Polygon&gt;" class="cls-14" points="1703.3 128.6 1809.9 -292.1 1939.1 3.4 1703.3 128.6"/></svg>